<svg width="22" height="22" viewBox="0 0 22 22" fill="none" xmlns="http://www.w3.org/2000/svg">
<path fill-rule="evenodd" clip-rule="evenodd" d="M0.725393 0.067848C0.61529 0.106711 0.447707 0.221838 0.33021 0.339287C-0.0163063 0.685786 -0.0973893 1.19302 0.123031 1.635C0.187648 1.76453 1.60153 3.20788 4.80044 6.4099L9.38524 10.9992L4.80027 15.5883C1.59607 18.7953 0.187476 20.2332 0.122902 20.363C-0.352418 21.3175 0.637431 22.335 1.61223 21.894C1.7235 21.8436 3.26205 20.3363 6.38719 17.2158L10.998 12.6118L15.5875 17.1964C18.8271 20.4325 20.2323 21.8086 20.3652 21.8749C20.7768 22.0803 21.2613 22.0197 21.6127 21.7189C21.9596 21.422 22.0864 20.948 21.9403 20.495C21.8688 20.2736 21.6597 20.0572 17.2384 15.6312L12.6113 10.999L17.2384 6.36682C21.6597 1.94075 21.8688 1.72434 21.9403 1.50302C22.0864 1.04995 21.9596 0.575989 21.6127 0.279058C21.2613 -0.0217001 20.7768 -0.082273 20.3652 0.12309C20.2323 0.189381 18.8271 1.5654 15.5876 4.80147L10.9982 9.38592L6.36578 4.75947C2.11674 0.515889 1.71584 0.12726 1.52152 0.063291C1.26047 -0.0226459 0.977025 -0.0210123 0.725393 0.067848Z" fill="white"/>
</svg>
