<svg width="159" height="28" viewBox="0 0 159 28" fill="none" xmlns="http://www.w3.org/2000/svg">
<path d="M21.528 0L14.2667 6.2911L9.43102 0.0013092L0 5.24215V22.7565L9.42842 28L16.6884 21.7089L21.5241 27.9987L30.9539 22.7552V5.24346L21.528 0ZM9.43102 26.216V12.267V12.2748L15.8673 20.6455L9.43102 26.216ZM21.528 15.7343L15.0878 7.3636L21.528 1.784V15.7343Z" fill="white"/>
<path d="M86.5652 4.26917H81.4045L77.8834 10.4186H77.7335L74.2463 4.26917H69.0711L74.817 13.9988L68.9018 23.7284H74.1544L77.7335 17.5149H77.8834L81.4577 23.7284H86.778L80.8048 13.9988L86.5652 4.26917ZM62.0821 23.7284H66.6914V4.26917H62.0821V23.7284ZM100.509 16.4102C100.521 17.0378 100.369 17.6573 100.069 18.2053C99.7862 18.7257 99.3656 19.1545 98.8552 19.443C98.2985 19.7488 97.6735 19.9017 97.0414 19.8869C96.4094 19.9006 95.7847 19.7477 95.2277 19.443C94.7149 19.1562 94.2922 18.727 94.0088 18.2053C93.7163 17.6546 93.568 17.0364 93.5784 16.4102V4.26917H88.9594V16.8195C88.9284 18.1546 89.2779 19.4702 89.9654 20.6068C90.6543 21.695 91.6345 22.5591 92.79 23.0972C94.1242 23.7073 95.5747 24.0071 97.0366 23.975C98.4905 24.0056 99.9329 23.7058 101.259 23.0972C102.415 22.5565 103.398 21.6931 104.093 20.6068C104.785 19.4719 105.136 18.1554 105.104 16.8195V4.26917H100.509V16.4102ZM54.5949 15.4831H54.4353L46.9192 4.26917H42.9531V23.7284H47.5625V12.4996H47.6834L55.2769 23.7284H59.1898V4.26917H54.5901L54.5949 15.4831ZM138.941 4.26917L132.504 23.7284H137.461L141.935 9.17096H142.08L146.564 23.7284H151.521L145.084 4.26917H138.941ZM121.476 14.3144C120.938 13.8015 120.322 13.3802 119.653 13.0668C118.851 12.6938 118.011 12.4142 117.147 12.2333L115.508 11.8536C115.111 11.7673 114.72 11.6553 114.337 11.5183C114.023 11.412 113.724 11.2645 113.447 11.0794C113.218 10.9305 113.026 10.7297 112.886 10.4926C112.758 10.2583 112.697 9.99138 112.712 9.72327C112.716 9.38392 112.824 9.05431 113.022 8.78138C113.252 8.48075 113.563 8.25466 113.917 8.13045C114.394 7.95725 114.899 7.87532 115.406 7.8888C116.146 7.84194 116.88 8.04849 117.491 8.47564C117.733 8.67251 117.931 8.91927 118.072 9.19972C118.214 9.48017 118.296 9.78799 118.313 10.103H122.729C122.74 8.97007 122.42 7.85943 121.81 6.9124C121.176 5.97019 120.297 5.22723 119.271 4.76724C118.05 4.23013 116.73 3.96934 115.401 4.00287C114.073 3.97846 112.755 4.23888 111.532 4.76724C110.475 5.21295 109.557 5.94442 108.877 6.88281C108.225 7.80295 107.886 8.91431 107.909 10.0487C107.876 10.7044 107.986 11.3595 108.231 11.9666C108.476 12.5738 108.85 13.1179 109.327 13.5599C110.451 14.5109 111.794 15.1556 113.23 15.4338L115.222 15.927C115.81 16.059 116.385 16.2387 116.944 16.4645C117.326 16.6105 117.668 16.8452 117.945 17.1499C118.164 17.4131 118.282 17.7473 118.279 18.0918C118.28 18.4725 118.152 18.8416 117.916 19.1373C117.648 19.4638 117.299 19.7108 116.906 19.8523C116.394 20.0339 115.855 20.1208 115.314 20.1088C114.706 20.1209 114.101 20.0103 113.534 19.7833C113.051 19.5913 112.632 19.2628 112.325 18.8365C112.023 18.3701 111.856 17.8268 111.842 17.2683H107.426C107.393 18.6003 107.746 19.9125 108.441 21.0408C109.12 22.0509 110.085 22.8253 111.208 23.2599C112.54 23.7752 113.957 24.0246 115.382 23.9947C116.773 24.0299 118.158 23.7904 119.459 23.2895C120.499 22.8893 121.401 22.1862 122.052 21.2676C122.672 20.3347 122.991 19.2282 122.966 18.1017C122.972 17.3804 122.839 16.6649 122.574 15.996C122.328 15.3617 121.952 14.7884 121.471 14.3144H121.476ZM153.577 4.26917V23.7284H158.191V4.26917H153.577ZM127.885 19.0929C127.566 19.0874 127.249 19.148 126.954 19.2709C126.659 19.3938 126.392 19.5765 126.168 19.808C125.939 20.0295 125.758 20.2977 125.637 20.595C125.516 20.8923 125.458 21.2122 125.466 21.5339C125.457 21.8587 125.515 22.1818 125.636 22.4825C125.757 22.7831 125.938 23.0547 126.168 23.2797C126.391 23.5127 126.658 23.6968 126.953 23.8206C127.249 23.9444 127.566 24.0053 127.885 23.9996C128.304 24.0036 128.715 23.8893 129.075 23.6692C129.436 23.4493 129.74 23.1429 129.96 22.7766C130.187 22.4034 130.307 21.9731 130.308 21.5339C130.309 21.2096 130.243 20.8887 130.116 20.5916C129.989 20.2944 129.802 20.0276 129.568 19.808C129.348 19.5805 129.086 19.4 128.797 19.2772C128.508 19.1544 128.198 19.0918 127.885 19.0929Z" fill="white"/>
</svg>
